<svg width="19" height="16" viewBox="0 0 19 16" fill="none" xmlns="http://www.w3.org/2000/svg">
<g clip-path="url(#clip0_21356_1682)">
<path d="M5.73599 11.9685H13.9695C14.1059 11.9685 14.2259 11.9184 14.3294 11.8182C14.4329 11.7179 14.4846 11.5932 14.4846 11.444C14.4846 11.2949 14.4329 11.1701 14.3294 11.0699C14.2259 10.9697 14.1059 10.9196 13.9695 10.9196H5.85593C5.65838 10.9196 5.49728 10.8555 5.37264 10.7272C5.24799 10.5991 5.17156 10.4277 5.14334 10.2133L3.98627 2.43007C3.94864 2.15967 3.86515 1.95688 3.7358 1.82168C3.60645 1.68648 3.36069 1.61888 2.99852 1.61888H0.522095C0.380988 1.61888 0.258696 1.67133 0.155218 1.77623C0.0517392 1.88112 0 2.00349 0 2.14335C0 2.28788 0.0517392 2.41259 0.155218 2.51748C0.258696 2.62238 0.380988 2.67482 0.522095 2.67482H2.9068L4.03565 10.3532C4.11091 10.852 4.28494 11.2459 4.55774 11.535C4.83055 11.824 5.2233 11.9685 5.73599 11.9685ZM3.83104 4.37412H10.8793C10.8605 4.21561 10.8558 4.03962 10.8652 3.84615C10.8746 3.65268 10.8911 3.47669 10.9146 3.31818H3.83104V4.37412ZM4.43781 9.47903H13.9837C14.3506 9.47903 14.6539 9.4021 14.8938 9.24824C15.1337 9.09438 15.3219 8.86826 15.4583 8.5699C15.1572 8.5699 14.8644 8.54078 14.5799 8.48253C14.2953 8.42425 14.0189 8.33681 13.7508 8.22023C13.6991 8.29017 13.638 8.34147 13.5674 8.37412C13.4969 8.40677 13.4122 8.4231 13.3134 8.4231L4.43781 8.43005V9.47903ZM6.29336 15.3671C6.6085 15.3671 6.87777 15.2575 7.10119 15.0384C7.32463 14.8193 7.43635 14.5513 7.43635 14.2343C7.43635 13.9172 7.32463 13.6491 7.10119 13.43C6.87777 13.2109 6.6085 13.1014 6.29336 13.1014C6.077 13.1014 5.88297 13.1515 5.71129 13.2517C5.53962 13.352 5.40204 13.4883 5.29855 13.6608C5.19508 13.8333 5.14334 14.0244 5.14334 14.2343C5.14334 14.444 5.19508 14.6352 5.29855 14.8077C5.40204 14.9802 5.53962 15.1165 5.71129 15.2168C5.88297 15.317 6.077 15.3671 6.29336 15.3671ZM12.8901 15.3671C13.21 15.3671 13.4816 15.2575 13.705 15.0384C13.9284 14.8193 14.0401 14.5513 14.0401 14.2343C14.0401 13.9172 13.9284 13.6491 13.705 13.43C13.4816 13.2109 13.21 13.1014 12.8901 13.1014C12.6784 13.1014 12.4856 13.1515 12.3116 13.2517C12.1375 13.352 11.9988 13.4883 11.8953 13.6608C11.7918 13.8333 11.7401 14.0244 11.7401 14.2343C11.7401 14.5513 11.853 14.8193 12.0788 15.0384C12.3045 15.2575 12.575 15.3671 12.8901 15.3671Z" fill="black" fill-opacity="0.85"/>
<path d="M15.4159 7.60489C15.9004 7.60489 16.359 7.51165 16.7917 7.32516C17.2244 7.13868 17.6065 6.88227 17.9381 6.55593C18.2698 6.2296 18.5296 5.85197 18.7178 5.42307C18.9059 4.99416 19 4.53729 19 4.05244C19 3.56293 18.9071 3.10373 18.7213 2.67482C18.5355 2.24592 18.278 1.8683 17.9488 1.54196C17.6195 1.21562 17.2385 0.960372 16.8058 0.776223C16.373 0.592074 15.9097 0.5 15.4159 0.5C14.9267 0.5 14.4658 0.592074 14.033 0.776223C13.6003 0.960372 13.2193 1.21678 12.8901 1.54545C12.5608 1.87412 12.3021 2.25175 12.114 2.67832C11.9259 3.10489 11.8318 3.56293 11.8318 4.05244C11.8318 4.54195 11.9259 5.00116 12.114 5.43007C12.3021 5.85896 12.5608 6.23659 12.8901 6.56293C13.2193 6.88927 13.6003 7.14451 14.033 7.32866C14.4658 7.51281 14.9267 7.60489 15.4159 7.60489Z" fill="#9E122C"/>
<path d="M15.416 6.27622C15.2843 6.27622 15.1796 6.23659 15.102 6.15734C15.0244 6.07809 14.9856 5.97552 14.9856 5.84964V4.47902H13.6027C13.4758 4.47902 13.3723 4.44056 13.2923 4.36364C13.2123 4.28671 13.1724 4.18298 13.1724 4.05245C13.1724 3.92191 13.2123 3.81818 13.2923 3.74126C13.3723 3.66433 13.4758 3.62587 13.6027 3.62587H14.9856V2.25524C14.9856 2.12937 15.0244 2.02681 15.102 1.94755C15.1796 1.8683 15.2843 1.82867 15.416 1.82867C15.5477 1.82867 15.6523 1.8683 15.73 1.94755C15.8076 2.02681 15.8464 2.12937 15.8464 2.25524V3.62587H17.2292C17.3562 3.62587 17.4596 3.66433 17.5396 3.74126C17.6196 3.81818 17.6596 3.92191 17.6596 4.05245C17.6596 4.18298 17.6196 4.28671 17.5396 4.36364C17.4596 4.44056 17.3562 4.47902 17.2292 4.47902H15.8464V5.84964C15.8464 5.97552 15.8076 6.07809 15.73 6.15734C15.6523 6.23659 15.5477 6.27622 15.416 6.27622Z" fill="white"/>
</g>
<defs>
<clipPath id="clip0_21356_1682">
<rect width="19" height="15" fill="white" transform="translate(0 0.5)"/>
</clipPath>
</defs>
</svg>
