<svg width="40" height="40" viewBox="0 0 40 40" fill="none" xmlns="http://www.w3.org/2000/svg">
<path d="M19.6511 6.90045C16.4982 10.6499 13.8566 13.8149 13.7713 13.9367C13.6374 14.1436 13.7957 14.2532 15.6582 15.3001C17.959 16.5905 18.6164 17.1505 18.8477 18.0026C19.1642 19.1104 18.7746 20.4495 17.9712 21.0581C16.9973 21.8007 15.7069 21.7642 13.0409 20.912C12.2253 20.6442 11.5314 20.4616 11.5071 20.5103C11.4827 20.5468 13.2357 22.0807 15.4147 23.9067C18.665 26.6335 19.4076 27.2057 19.5294 27.0718C20.2354 26.3292 35.087 8.50734 35.0991 8.39778C35.1113 8.32474 33.0053 6.49873 30.4246 4.33186C27.8438 2.165 25.6526 0.326813 25.5552 0.241598C25.3969 0.107691 24.557 1.05722 19.6511 6.90045ZM25.7621 8.23953C28.0264 9.32296 28.6838 12.2324 27.1499 14.2654C25.6769 16.2131 22.5484 16.347 20.978 14.521C20.2354 13.6445 20.0163 13.048 20.0163 11.8185C20.0163 10.7959 20.0406 10.6742 20.4302 9.95598C21.5136 7.95954 23.717 7.25348 25.7621 8.23953Z" fill="#9E122C"/>
<path d="M22.3158 9.43247C22.0358 9.6029 21.8897 9.62724 21.8045 9.54203C21.7071 9.44464 21.6098 9.45682 21.4758 9.56638C21.2567 9.74898 21.2324 10.0168 21.4272 10.0777C21.5245 10.1142 21.5124 10.2481 21.3663 10.5037C21.1106 11.015 21.1228 11.368 21.415 11.8428C21.8776 12.5976 22.5471 12.7558 23.9105 12.415L24.7018 12.2202L25.1279 12.5367C25.3592 12.7193 25.5539 12.9141 25.5539 12.9871C25.5539 13.2549 25.1644 13.2306 24.7748 12.9262L24.3609 12.6097L23.8984 13.121L23.4479 13.6323L23.8497 13.9732C24.3975 14.4236 25.067 14.4723 25.627 14.1071C25.8704 13.9488 25.9557 13.9488 26.1139 14.0705C26.26 14.2044 26.333 14.1923 26.4913 14.034C26.6495 13.8758 26.6617 13.8027 26.54 13.6566C26.4182 13.5106 26.4061 13.3767 26.5156 13.0845C26.5887 12.8654 26.6495 12.5489 26.6495 12.3784C26.6495 11.8793 26.1139 11.2098 25.4931 10.9055L24.9209 10.6255L24.0323 10.8933C22.9245 11.2098 22.7297 11.2098 22.4497 10.9055C22.1089 10.5403 22.3889 10.309 22.8149 10.5889C23.1193 10.7959 23.1558 10.7959 23.3871 10.5768C23.521 10.455 23.7401 10.2116 23.8618 10.029L24.0931 9.71246L23.6792 9.45682C23.1801 9.14031 22.8027 9.14031 22.3158 9.43247Z" fill="#9E122C"/>
<path d="M10.339 7.01004C9.55987 7.13177 6.50434 7.91087 4.49573 8.50737L3.09579 8.92126L3.05927 12.8898C3.03492 16.0305 3.05927 16.8705 3.181 16.8705C3.26621 16.8705 3.7775 16.7488 4.31313 16.6027C4.84876 16.4566 5.61568 16.3227 6.02958 16.3227C6.83302 16.3227 6.71129 16.2618 8.306 17.5887C9.1338 18.2826 10.132 18.6965 13.4554 19.7191C16.1335 20.5469 16.6326 20.5834 17.2169 19.9991C17.9717 19.2443 17.8865 18.2217 17.01 17.5644C16.7909 17.394 15.464 16.627 14.0519 15.8358C12.6519 15.0567 11.3981 14.3141 11.2763 14.2045C10.9963 13.9245 10.972 13.3159 11.2276 12.9263C11.4346 12.622 11.5441 12.5855 12.8223 12.4272C13.2362 12.3663 13.5041 12.2568 13.7232 12.0255C13.991 11.7333 16.7543 8.4465 17.1317 7.97174C17.2656 7.80131 17.1317 7.75262 15.9753 7.52132C13.638 7.0709 11.325 6.86396 10.339 7.01004Z" fill="#9E122C"/>
<path d="M1.18454 8.19097L0.125455 8.23966L0.113281 12.9751V17.7227H1.20889H2.30449V12.9143C2.30449 10.2726 2.29232 8.11793 2.28015 8.1301C2.2558 8.14227 1.76886 8.1788 1.18454 8.19097ZM0.563697 10.6865C0.527177 10.7717 0.50283 10.7109 0.50283 10.5404C0.50283 10.37 0.527177 10.3091 0.563697 10.3822C0.588044 10.4674 0.588044 10.6135 0.563697 10.6865ZM1.69582 17.4793C1.69582 17.5401 1.39149 17.601 1.02629 17.601C0.661085 17.601 0.356749 17.5401 0.356749 17.4793C0.356749 17.4062 0.661085 17.3575 1.02629 17.3575C1.39149 17.3575 1.69582 17.4062 1.69582 17.4793Z" fill="#9E122C"/>
<path d="M10.3767 27.6562C9.58544 28.0457 9.23241 29.1657 9.6463 29.9691C9.81673 30.2978 13.5174 33.6576 15.1852 34.9967C16.0495 35.6906 17.4008 36.3723 18.3138 36.5793C18.679 36.6645 20.6145 36.7375 23.244 36.7619C25.9708 36.7984 27.6873 36.8592 27.9064 36.9445C28.2351 37.0784 38.826 37.1514 38.826 37.0297C38.826 36.9201 37.0243 32.8664 36.3913 31.5638C35.4174 29.543 34.3096 28.4961 32.5688 27.9727C32.0697 27.8266 31.0106 27.7779 27.3221 27.7414C22.1362 27.6805 21.6249 27.7292 21.1137 28.3257C20.578 28.9709 20.7606 30.176 21.4667 30.6386C21.6493 30.7604 22.331 30.8212 23.9379 30.8699C25.8978 30.9308 26.19 30.9673 26.4821 31.1743C26.896 31.4908 26.8838 31.6003 26.3969 31.8682C26.0317 32.0629 25.6422 32.0873 22.8788 32.0873C18.3625 32.0873 18.3259 32.0751 14.9661 29.7256C11.594 27.3762 11.2532 27.2301 10.3767 27.6562Z" fill="#9E122C"/>
<path d="M27.9902 38.9044V40H33.6265H39.2506V38.9044V37.8088H33.6265H27.9902V38.9044ZM36.5481 38.1375C35.0508 38.1618 32.6161 38.1618 31.131 38.1375C29.6336 38.1253 30.851 38.1131 33.8335 38.1131C36.816 38.1131 38.0333 38.1253 36.5481 38.1375ZM28.818 39.8417C28.6963 39.8661 28.4772 39.8661 28.3311 39.8417C28.1728 39.8174 28.2702 39.7931 28.538 39.7931C28.8059 39.7809 28.9276 39.8052 28.818 39.8417ZM36.6699 39.8417C35.4525 39.8661 33.4317 39.8661 32.1657 39.8417C30.9119 39.8296 31.9101 39.8174 34.3813 39.8174C36.8646 39.8174 37.8872 39.8296 36.6699 39.8417Z" fill="#9E122C"/>
</svg>
