<svg width="24" height="25" viewBox="0 0 24 25" fill="none" xmlns="http://www.w3.org/2000/svg">
<path d="M4.25 10.75C4.25 9.11999 4.25 8.30498 4.49907 7.65612C4.87994 6.66393 5.66393 5.87994 6.65612 5.49907C7.30498 5.25 8.11999 5.25 9.75 5.25H14.6133C17.1634 5.25 18.4384 5.25 19.2527 5.67406C20.5009 6.32418 21.28 7.6185 21.2703 9.02587C21.264 9.94387 20.6672 11.0706 19.4737 13.3242C18.9963 14.2257 18.7575 14.6764 18.4361 15.0284C17.9456 15.5657 17.3093 15.9487 16.6049 16.1307C16.1434 16.25 15.6334 16.25 14.6133 16.25H9.75C8.11999 16.25 7.30498 16.25 6.65612 16.0009C5.66393 15.6201 4.87994 14.8361 4.49907 13.8439C4.25 13.195 4.25 12.38 4.25 10.75Z" fill="white"/>
<path d="M10 19.5C10 20.6046 9.10457 21.5 8 21.5C6.89543 21.5 6 20.6046 6 19.5C6 18.3954 6.89543 17.5 8 17.5C9.10457 17.5 10 18.3954 10 19.5Z" fill="white"/>
<path d="M18 19.5C18 20.6046 17.1046 21.5 16 21.5C14.8954 21.5 14 20.6046 14 19.5C14 18.3954 14.8954 17.5 16 17.5C17.1046 17.5 18 18.3954 18 19.5Z" fill="white"/>
<path d="M5.75 6C5.75 5.58579 5.41421 5.25 5 5.25C4.58579 5.25 4.25 5.58579 4.25 6H5.75ZM4.25 12C4.25 12.4142 4.58579 12.75 5 12.75C5.41421 12.75 5.75 12.4142 5.75 12H4.25ZM3 3.25C2.58579 3.25 2.25 3.58579 2.25 4C2.25 4.41421 2.58579 4.75 3 4.75V3.25ZM5.75 12V6H4.25V12H5.75ZM5.75 12V6H4.25V12H5.75ZM5.75 6C5.75 4.48122 4.51878 3.25 3 3.25V4.75C3.69036 4.75 4.25 5.30964 4.25 6H5.75Z" fill="white"/>
</svg>
