<svg width="20" height="21" viewBox="0 0 20 21" fill="none" xmlns="http://www.w3.org/2000/svg">
<path d="M20 10.5C20 16.0228 15.5228 20.5 10 20.5C4.47715 20.5 0 16.0228 0 10.5C0 4.97715 4.47715 0.5 10 0.5C15.5228 0.5 20 4.97715 20 10.5Z" fill="white"/>
<path fill-rule="evenodd" clip-rule="evenodd" d="M10 5.75C10.4142 5.75 10.75 6.08579 10.75 6.5V10.1893L13.0303 12.4697C13.3232 12.7626 13.3232 13.2374 13.0303 13.5303C12.7374 13.8232 12.2626 13.8232 11.9697 13.5303L9.46967 11.0303C9.32902 10.8897 9.25 10.6989 9.25 10.5V6.5C9.25 6.08579 9.58579 5.75 10 5.75Z" fill="#9E122C"/>
</svg>
