<svg width="19" height="20" viewBox="0 0 19 20" fill="none" xmlns="http://www.w3.org/2000/svg">
<rect x="0.25" y="0.25" width="18.5" height="19.5" rx="3.75" stroke="#CFCFCF" stroke-width="0.5"/>
<path d="M3.5 6.07016C3.5 5.73104 3.73025 5.45614 4.01429 5.45614L5.79045 5.45581C6.14335 5.44513 6.45468 5.17722 6.57476 4.78087C6.57792 4.77045 6.58155 4.7576 6.59457 4.71096L6.6711 4.43678C6.71793 4.26868 6.75874 4.12222 6.81583 3.99132C7.04139 3.47415 7.45872 3.11502 7.94098 3.02308C8.06305 2.9998 8.19232 2.9999 8.34071 3.00002H10.6594C10.8078 2.9999 10.9371 2.9998 11.0591 3.02308C11.5414 3.11502 11.9587 3.47415 12.1843 3.99132C12.2414 4.12222 12.2822 4.26868 12.329 4.43678L12.4055 4.71096C12.4186 4.7576 12.4222 4.77045 12.4254 4.78087C12.5454 5.17722 12.9185 5.44546 13.2714 5.45614H14.9857C15.2697 5.45614 15.5 5.73104 15.5 6.07016C15.5 6.40928 15.2697 6.68419 14.9857 6.68419H4.01429C3.73025 6.68419 3.5 6.40928 3.5 6.07016Z" fill="#333333"/>
<path fill-rule="evenodd" clip-rule="evenodd" d="M9.2304 17H9.7696C11.6247 17 12.5523 17 13.1554 16.3799C13.7585 15.7597 13.8202 14.7425 13.9436 12.708L14.1214 9.77647C14.1884 8.67258 14.2219 8.12064 13.9193 7.77087C13.6167 7.42111 13.1058 7.42111 12.084 7.42111H6.91603C5.89418 7.42111 5.38325 7.42111 5.0807 7.77087C4.77815 8.12064 4.81163 8.67258 4.87858 9.77647L5.05639 12.708C5.1798 14.7425 5.2415 15.7597 5.84459 16.3799C6.44769 17 7.37526 17 9.2304 17ZM8.33085 10.132C8.30337 9.82829 8.05835 9.60671 7.78358 9.63708C7.50881 9.66745 7.30834 9.93826 7.33581 10.242L7.66915 13.9261C7.69662 14.2298 7.94165 14.4514 8.21642 14.421C8.49119 14.3907 8.69166 14.1199 8.66419 13.8162L8.33085 10.132ZM11.2164 9.63708C11.4912 9.66745 11.6917 9.93826 11.6642 10.242L11.3309 13.9261C11.3034 14.2298 11.0584 14.4514 10.7836 14.421C10.5088 14.3907 10.3083 14.1199 10.3358 13.8162L10.6691 10.132C10.6966 9.82829 10.9416 9.60671 11.2164 9.63708Z" fill="#9E122C"/>
</svg>
