<svg width="24" height="25" viewBox="0 0 24 25" fill="none" xmlns="http://www.w3.org/2000/svg">
<path d="M18.6899 12.03C18.1199 11.88 17.4499 11.8 16.6499 11.8C15.5399 11.8 15.1299 12.07 14.5599 12.5C14.5299 12.52 14.4999 12.55 14.4699 12.58L13.5199 13.59C12.7299 14.44 11.2799 14.44 10.4799 13.59L9.52993 12.59C9.49993 12.55 9.46993 12.52 9.43993 12.5C8.85993 12.07 8.44993 11.8 7.34993 11.8C6.54993 11.8 5.87993 11.87 5.30993 12.03C2.92993 12.67 2.92993 14.56 2.92993 16.22V17.15C2.92993 19.66 2.92993 22.5 8.27993 22.5H15.7199C19.2699 22.5 21.0699 20.7 21.0699 17.15V16.22C21.0699 14.56 21.0699 12.67 18.6899 12.03Z" fill="white"/>
<path d="M14.79 2.5H9.21004C4.79004 2.5 4.79004 4.85 4.79004 6.92V10.62C4.83004 10.6 4.88004 10.59 4.92004 10.58C5.62004 10.39 6.41004 10.3 7.35004 10.3C8.89004 10.3 9.62004 10.75 10.34 11.3C10.44 11.37 10.54 11.46 10.63 11.56L11.57 12.55C11.67 12.66 11.83 12.72 12 12.72C12.17 12.72 12.33 12.66 12.42 12.56L13.38 11.55C13.46 11.47 13.55 11.38 13.65 11.31C14.39 10.75 15.11 10.3 16.65 10.3C17.59 10.3 18.38 10.39 19.08 10.58C19.12 10.59 19.17 10.6 19.21 10.62V6.92C19.21 4.85 19.21 2.5 14.79 2.5ZM13.55 9H10.45C10.07 9 9.75004 8.68 9.75004 8.3C9.75004 7.91 10.07 7.6 10.45 7.6H13.55C13.93 7.6 14.25 7.91 14.25 8.3C14.25 8.68 13.93 9 13.55 9ZM14.33 6.21H9.67004C9.29004 6.21 8.98004 5.89 8.98004 5.51C8.98004 5.12 9.29004 4.81 9.67004 4.81H14.33C14.71 4.81 15.02 5.12 15.02 5.51C15.02 5.89 14.71 6.21 14.33 6.21Z" fill="white"/>
</svg>
