<svg width="19" height="20" viewBox="0 0 19 20" fill="none" xmlns="http://www.w3.org/2000/svg">
<rect x="0.25" y="0.25" width="18.5" height="19.5" rx="3.75" stroke="#CFCFCF" stroke-width="0.5"/>
<path d="M9.13606 14.0048L9.13608 14.0048L13.6229 9.19746C13.0122 8.92514 12.289 8.47783 11.6049 7.74494C10.9208 7.01194 10.5033 6.23688 10.2491 5.58254L5.76224 10.3899L5.76221 10.39C5.41209 10.7651 5.23701 10.9527 5.08645 11.1595C4.90884 11.4035 4.75657 11.6675 4.63233 11.9468C4.52701 12.1835 4.44871 12.4352 4.29212 12.9385L3.46638 15.5927C3.38932 15.8404 3.44949 16.1135 3.6218 16.2981C3.79411 16.4827 4.04898 16.5472 4.28016 16.4646L6.75739 15.5799C7.22715 15.4121 7.46204 15.3282 7.68304 15.2154C7.94373 15.0823 8.19011 14.9191 8.41782 14.7288C8.61085 14.5675 8.78594 14.3799 9.13606 14.0048Z" fill="#9E122C"/>
<path d="M14.8679 7.86349C15.7996 6.86528 15.7996 5.24686 14.8679 4.24866C13.9363 3.25045 12.4258 3.25045 11.4941 4.24866L10.956 4.82523C10.9633 4.84907 10.971 4.87324 10.9789 4.89773C11.1761 5.50687 11.5483 6.3054 12.2484 7.05551C12.9485 7.80562 13.6938 8.20437 14.2623 8.4157C14.2851 8.42416 14.3075 8.43231 14.3297 8.44017L14.8679 7.86349Z" fill="#9E122C"/>
</svg>
