<svg width="16" height="20" viewBox="0 0 16 20" fill="none" xmlns="http://www.w3.org/2000/svg">
<path d="M1.02685 0.437506C0.769033 0.54063 0.783095 0.0484428 0.783095 10C0.783095 20.0172 0.769033 19.4594 1.04091 19.5625C1.20966 19.6281 14.794 19.6281 14.9628 19.5625C15.2347 19.4594 15.2206 20.0172 15.2206 10C15.2206 -0.0171814 15.2347 0.54063 14.9628 0.437506C14.8034 0.376568 1.17685 0.376568 1.02685 0.437506ZM13.3409 2.03594C13.4206 2.06407 13.5097 2.12501 13.5331 2.17188C13.6128 2.32188 13.5847 2.55626 13.4768 2.67344L13.3784 2.78126H8.00653H2.63934L2.53153 2.67813C2.33934 2.49532 2.39091 2.15313 2.62997 2.05C2.82216 1.96563 13.1018 1.95157 13.3409 2.03594ZM13.4722 17.3219C13.5425 17.3875 13.58 17.4766 13.58 17.5797C13.58 17.8 13.5143 17.9031 13.3409 17.9641C13.13 18.0391 2.87372 18.0391 2.66278 17.9641C2.58309 17.9359 2.49403 17.875 2.47059 17.8281C2.39091 17.6781 2.41903 17.4438 2.52684 17.3266L2.62528 17.2188H7.99716H13.3643L13.4722 17.3219Z" fill="#C3C3C3"/>
</svg>
