<svg width="27" height="22" viewBox="0 0 27 22" fill="none" xmlns="http://www.w3.org/2000/svg">
<g clip-path="url(#clip0_21397_2545)">
<path d="M7.04102 15.4102H8.36914C8.57097 15.4102 8.73861 15.3548 8.87207 15.2441C9.00554 15.1334 9.09505 14.987 9.14062 14.8047L9.53125 13.1934C9.66797 13.1413 9.80143 13.0892 9.93164 13.0371C10.0619 12.985 10.1856 12.9264 10.3027 12.8613L11.7188 13.7402C11.8815 13.8379 12.0508 13.8786 12.2266 13.8623C12.4023 13.846 12.5586 13.7695 12.6953 13.6328L13.6328 12.6855C13.763 12.5488 13.8395 12.391 13.8623 12.2119C13.8851 12.0329 13.8444 11.8588 13.7402 11.6895L12.8711 10.3027C12.9297 10.179 12.9867 10.0537 13.042 9.92676C13.0973 9.79981 13.1445 9.67123 13.1836 9.54102L14.7949 9.15039C14.9902 9.10482 15.1416 9.01693 15.249 8.88672C15.3565 8.75651 15.4102 8.5905 15.4102 8.38867V7.07031C15.4102 6.66016 15.2051 6.40625 14.7949 6.30859L13.2031 5.9082C13.151 5.76497 13.099 5.62988 13.0469 5.50293C12.9948 5.37598 12.9427 5.25716 12.8906 5.14648L13.7402 3.73047C13.8379 3.55469 13.8835 3.38216 13.877 3.21289C13.8705 3.04362 13.7956 2.89062 13.6523 2.75391L12.6953 1.81641C12.5586 1.6862 12.4056 1.60807 12.2363 1.58203C12.067 1.55599 11.901 1.5918 11.7383 1.68945L10.3027 2.57812C10.192 2.51302 10.0716 2.45443 9.94141 2.40234C9.8112 2.35026 9.67448 2.30143 9.53125 2.25586L9.14062 0.615234C9.09505 0.432943 9.00554 0.286458 8.87207 0.175781C8.73861 0.0651041 8.57097 0.00976562 8.36914 0.00976562H7.04102C6.83919 0.00976562 6.67155 0.0651041 6.53809 0.175781C6.40462 0.286458 6.3151 0.432943 6.26953 0.615234L5.87891 2.23633C5.74219 2.28841 5.6071 2.34049 5.47363 2.39258C5.34017 2.44466 5.21485 2.50325 5.09766 2.56836L3.67188 1.68945C3.50911 1.5918 3.3431 1.55599 3.17383 1.58203C3.00456 1.60807 2.85156 1.6862 2.71484 1.81641L1.75781 2.75391C1.61458 2.89062 1.53971 3.04362 1.5332 3.21289C1.52669 3.38216 1.57227 3.55469 1.66992 3.73047L2.51953 5.14648C2.46745 5.25716 2.41537 5.37598 2.36328 5.50293C2.3112 5.62988 2.25912 5.76497 2.20703 5.9082L0.605469 6.30859C0.201823 6.40625 0 6.66016 0 7.07031V8.38867C0 8.5905 0.053711 8.75651 0.161133 8.88672C0.268555 9.01693 0.416667 9.10482 0.605469 9.15039L2.22656 9.54102C2.26563 9.67123 2.31283 9.79981 2.36816 9.92676C2.4235 10.0537 2.48047 10.179 2.53906 10.3027L1.66992 11.6895C1.56575 11.8588 1.52506 12.0329 1.54785 12.2119C1.57064 12.391 1.64713 12.5488 1.77734 12.6855L2.71484 13.6328C2.85156 13.7695 3.00781 13.846 3.18359 13.8623C3.35938 13.8786 3.52865 13.8379 3.69141 13.7402L5.10742 12.8613C5.22461 12.9264 5.34831 12.985 5.47852 13.0371C5.60873 13.0892 5.74219 13.1413 5.87891 13.1934L6.26953 14.8047C6.3151 14.987 6.40462 15.1334 6.53809 15.2441C6.67155 15.3548 6.83919 15.4102 7.04102 15.4102ZM7.70508 10.166C7.25586 10.166 6.84408 10.0553 6.46973 9.83398C6.09538 9.61263 5.79752 9.31478 5.57617 8.94043C5.35482 8.56608 5.24414 8.15104 5.24414 7.69531C5.24414 7.2526 5.35482 6.8457 5.57617 6.47461C5.79752 6.10352 6.09538 5.80729 6.46973 5.58594C6.84408 5.36459 7.25586 5.25391 7.70508 5.25391C8.1543 5.25391 8.56446 5.36459 8.93555 5.58594C9.30664 5.80729 9.60449 6.10352 9.8291 6.47461C10.0537 6.8457 10.166 7.2526 10.166 7.69531C10.166 8.15104 10.0537 8.56608 9.8291 8.94043C9.60449 9.31478 9.30664 9.61263 8.93555 9.83398C8.56446 10.0553 8.1543 10.166 7.70508 10.166ZM19.7852 21.416H20.8984C21.0742 21.416 21.2207 21.3688 21.3379 21.2744C21.4551 21.18 21.5332 21.0547 21.5723 20.8984L21.8945 19.502C22.0182 19.4564 22.1371 19.4108 22.251 19.3652C22.3649 19.3197 22.474 19.2676 22.5781 19.209L23.7988 19.9707C23.9355 20.0554 24.0788 20.0912 24.2285 20.0781C24.3782 20.0651 24.515 20 24.6387 19.8828L25.4199 19.0918C25.5371 18.9681 25.6055 18.8281 25.625 18.6719C25.6445 18.5156 25.6087 18.3691 25.5176 18.2324L24.7656 17.0215C24.8177 16.9173 24.8666 16.8099 24.9121 16.6992C24.9577 16.5885 25 16.4779 25.0391 16.3672L26.4453 16.0352C26.7838 15.9571 26.9531 15.7357 26.9531 15.3711V14.2676C26.9531 13.8965 26.7838 13.6719 26.4453 13.5938L25.0488 13.2617C24.9642 12.9948 24.8731 12.7734 24.7754 12.5977L25.5176 11.3672C25.6087 11.2239 25.6494 11.0791 25.6396 10.9326C25.6299 10.7861 25.5632 10.651 25.4395 10.5273L24.6387 9.74609C24.515 9.6289 24.3799 9.55892 24.2334 9.53613C24.0869 9.51334 23.9453 9.54427 23.8086 9.62891L22.5781 10.4004C22.4804 10.3548 22.373 10.306 22.2559 10.2539C22.1387 10.2018 22.0182 10.1595 21.8945 10.127L21.5723 8.70117C21.5332 8.54492 21.4551 8.41797 21.3379 8.32031C21.2207 8.22266 21.0742 8.17383 20.8984 8.17383H19.7852C19.6094 8.17383 19.4629 8.22266 19.3457 8.32031C19.2285 8.41797 19.1504 8.54492 19.1113 8.70117L18.7793 10.1074C18.6621 10.153 18.5449 10.197 18.4277 10.2393C18.3106 10.2816 18.1999 10.332 18.0957 10.3906L16.8652 9.62891C16.735 9.55078 16.595 9.52149 16.4453 9.54102C16.2956 9.56055 16.1621 9.6289 16.0449 9.74609L15.2539 10.5273C15.1237 10.651 15.0537 10.7861 15.0439 10.9326C15.0342 11.0791 15.0749 11.2239 15.166 11.3672L15.8984 12.5977C15.8529 12.6888 15.8089 12.7897 15.7666 12.9004C15.7243 13.0111 15.6803 13.1315 15.6348 13.2617L14.248 13.5938C14.0853 13.6328 13.9567 13.7109 13.8623 13.8281C13.7679 13.9453 13.7207 14.0918 13.7207 14.2676V15.3711C13.7207 15.5469 13.7679 15.6934 13.8623 15.8105C13.9567 15.9277 14.0853 16.0026 14.248 16.0352L15.6543 16.3672C15.6868 16.4779 15.7259 16.5885 15.7715 16.6992C15.817 16.8099 15.8659 16.9173 15.918 17.0215L15.166 18.2324C15.0683 18.3691 15.0309 18.5156 15.0537 18.6719C15.0765 18.8281 15.1465 18.9681 15.2637 19.0918L16.0449 19.8828C16.1621 20 16.2972 20.0651 16.4502 20.0781C16.6032 20.0912 16.7481 20.0554 16.8848 19.9707L18.1055 19.209C18.2096 19.2676 18.3187 19.3197 18.4326 19.3652C18.5465 19.4108 18.6621 19.4564 18.7793 19.502L19.1113 20.8984C19.1504 21.0547 19.2285 21.18 19.3457 21.2744C19.4629 21.3688 19.6094 21.416 19.7852 21.416ZM20.3418 16.748C19.8079 16.748 19.3489 16.5576 18.9648 16.1768C18.5807 15.7959 18.3887 15.3321 18.3887 14.7852C18.3887 14.2513 18.5807 13.794 18.9648 13.4131C19.3489 13.0322 19.8079 12.8418 20.3418 12.8418C20.8821 12.8418 21.3427 13.0322 21.7236 13.4131C22.1045 13.794 22.2949 14.2513 22.2949 14.7852C22.2949 15.3321 22.1045 15.7959 21.7236 16.1768C21.3427 16.5576 20.8821 16.748 20.3418 16.748Z" fill="#C3C3C3"/>
</g>
<defs>
<clipPath id="clip0_21397_2545">
<rect width="26.9531" height="21.416" fill="white"/>
</clipPath>
</defs>
</svg>
