<svg width="12" height="14" viewBox="0 0 12 14" fill="none" xmlns="http://www.w3.org/2000/svg">
<path fill-rule="evenodd" clip-rule="evenodd" d="M7.08002 1.63516C8.7021 2.18838 9.82272 3.79494 9.66389 5.60562C9.57482 6.62103 9.89317 7.63019 10.5488 8.41068L10.8917 8.81892C11.802 9.90264 11.0316 11.556 9.61625 11.556H7.26399H4.10324H1.75192C0.336601 11.556 -0.433851 9.90264 0.476472 8.81892L0.819396 8.41068C1.47501 7.63019 1.79336 6.62103 1.70429 5.60562C1.5455 3.79545 2.66546 2.18927 4.2868 1.63562V1.60522C4.2868 0.833893 4.91209 0.208609 5.68341 0.208609C6.45474 0.208609 7.08002 0.833893 7.08002 1.60522V1.63516ZM7.08035 12.6034H4.28713C4.28713 13.3747 4.91241 14 5.68374 14C6.45506 14 7.08035 13.3747 7.08035 12.6034Z" fill="#9E122C"/>
</svg>
