<svg width="22" height="25" viewBox="0 0 22 25" fill="none" xmlns="http://www.w3.org/2000/svg">
<g clip-path="url(#clip0_21397_2447)">
<path d="M5.05859 13.4375C5.92448 13.4375 6.73828 13.6019 7.5 13.9307C8.26172 14.2594 8.93229 14.7135 9.51172 15.293C10.0912 15.8724 10.5436 16.543 10.8691 17.3047C11.1946 18.0664 11.3574 18.8802 11.3574 19.7461C11.3574 20.306 11.2842 20.8496 11.1377 21.377C10.9912 21.9043 10.7813 22.3991 10.5078 22.8613H18.457C19.4661 22.8613 20.223 22.6058 20.7275 22.0947C21.2321 21.5836 21.4844 20.8203 21.4844 19.8047V10.9375H14.4141C13.1836 10.9375 12.5684 10.3223 12.5684 9.0918V1.92383H8.08594C7.07683 1.92383 6.31999 2.18099 5.81543 2.69531C5.31087 3.20963 5.05859 3.97461 5.05859 4.99023V13.4375ZM14.4434 9.59961H21.3672C21.3347 9.39779 21.25 9.19596 21.1133 8.99414C20.9766 8.79232 20.791 8.57096 20.5566 8.33008L15.1758 2.85156C14.9479 2.61718 14.7298 2.43001 14.5215 2.29004C14.3132 2.15006 14.1081 2.0638 13.9062 2.03125V9.07227C13.9062 9.42383 14.0853 9.59961 14.4434 9.59961ZM4.63867 24.7949H5.47852C5.62825 24.7949 5.75846 24.7526 5.86914 24.668C5.97982 24.5833 6.05143 24.4629 6.08398 24.3066L6.31836 23.3496C6.38347 23.3301 6.45508 23.3057 6.5332 23.2764C6.61133 23.2471 6.68294 23.2129 6.74805 23.1738L7.58789 23.6914C7.7181 23.7695 7.84993 23.8053 7.9834 23.7988C8.11686 23.7923 8.24219 23.7305 8.35938 23.6133L8.93555 23.0273C9.03972 22.9166 9.09668 22.7946 9.10645 22.6611C9.11621 22.5276 9.07877 22.3893 8.99414 22.2461L8.49609 21.4062C8.53516 21.3346 8.56771 21.2679 8.59375 21.2061C8.61979 21.1442 8.64258 21.0807 8.66211 21.0156L9.62891 20.7812C9.78516 20.7422 9.90723 20.669 9.99512 20.5615C10.083 20.4541 10.127 20.3223 10.127 20.166V19.3359C10.127 19.1927 10.0814 19.069 9.99023 18.9648C9.89909 18.8607 9.77865 18.7891 9.62891 18.75L8.68164 18.5156C8.64909 18.431 8.61816 18.3578 8.58887 18.2959C8.55957 18.234 8.5319 18.1738 8.50586 18.1152L9.0332 17.2461C9.11133 17.1224 9.14388 16.9889 9.13086 16.8457C9.11784 16.7025 9.05925 16.5821 8.95508 16.4844L8.35938 15.9082C8.2487 15.7975 8.125 15.7324 7.98828 15.7129C7.85156 15.6934 7.72461 15.7227 7.60742 15.8008L6.74805 16.3379C6.66992 16.2923 6.59505 16.2581 6.52344 16.2354C6.45183 16.2126 6.38347 16.1882 6.31836 16.1621L6.08398 15.1855C6.05143 15.0423 5.97982 14.9251 5.86914 14.834C5.75846 14.7429 5.62825 14.6973 5.47852 14.6973H4.63867C4.48893 14.6973 4.35709 14.7445 4.24316 14.8389C4.12923 14.9333 4.05925 15.0488 4.0332 15.1855L3.80859 16.1523C3.72396 16.1849 3.64583 16.2126 3.57422 16.2354C3.50261 16.2581 3.43099 16.2923 3.35938 16.3379L2.50977 15.8008C2.39909 15.7227 2.27376 15.6934 2.13379 15.7129C1.99382 15.7324 1.86849 15.7975 1.75781 15.9082L1.18164 16.4844C1.07747 16.5885 1.014 16.7106 0.991211 16.8506C0.968424 16.9905 0.996094 17.1224 1.07422 17.2461L1.61133 18.1152C1.58529 18.1738 1.55762 18.2373 1.52832 18.3057C1.49903 18.374 1.47136 18.444 1.44531 18.5156L0.488281 18.75C0.338542 18.7891 0.219727 18.8623 0.131836 18.9697C0.0439453 19.0772 0 19.1992 0 19.3359V20.166C0 20.3223 0.0439453 20.4541 0.131836 20.5615C0.219727 20.669 0.338542 20.7422 0.488281 20.7812L1.45508 21.0156C1.48112 21.0807 1.50879 21.1442 1.53809 21.2061C1.56738 21.2679 1.59505 21.3346 1.62109 21.4062L1.12305 22.2559C1.04492 22.3926 1.01074 22.5293 1.02051 22.666C1.03028 22.8027 1.08724 22.9232 1.19141 23.0273L1.75781 23.6133C1.86849 23.7305 1.99219 23.7923 2.12891 23.7988C2.26562 23.8053 2.39909 23.7695 2.5293 23.6914L3.37891 23.1738C3.46354 23.2194 3.54004 23.2552 3.6084 23.2812C3.67676 23.3073 3.74349 23.3301 3.80859 23.3496L4.0332 24.3066C4.05925 24.4563 4.12923 24.5752 4.24316 24.6631C4.35709 24.751 4.48893 24.7949 4.63867 24.7949ZM5.06836 21.377C4.60612 21.377 4.21875 21.2191 3.90625 20.9033C3.59375 20.5876 3.4375 20.2051 3.4375 19.7559C3.4375 19.3066 3.59375 18.9225 3.90625 18.6035C4.21875 18.2845 4.60612 18.1217 5.06836 18.1152C5.50456 18.1087 5.88379 18.2683 6.20605 18.5938C6.52832 18.9193 6.68945 19.3066 6.68945 19.7559C6.68945 20.2051 6.52832 20.5876 6.20605 20.9033C5.88379 21.2191 5.50456 21.377 5.06836 21.377Z" fill="#C3C3C3"/>
</g>
<defs>
<clipPath id="clip0_21397_2447">
<rect width="21.4844" height="24.7949" fill="white"/>
</clipPath>
</defs>
</svg>
