<svg width="19" height="19" viewBox="0 0 19 19" fill="none" xmlns="http://www.w3.org/2000/svg">
<path d="M3.99874 0.551922C3.77729 0.64683 3.77026 0.678465 3.77026 1.76111C3.77026 2.70315 3.77378 2.74533 3.84408 2.83673C3.98468 3.016 3.97765 3.016 5.51023 3.03709C7.05687 3.05818 7.30292 3.08278 7.90049 3.26908C8.41017 3.42726 8.89877 3.72956 9.1624 4.0424C9.2784 4.17949 9.42955 4.40797 9.42955 4.44312C9.42955 4.4607 8.20982 4.47476 6.71942 4.47476H4.00929L3.88978 4.59427L3.77026 4.71378V5.51873C3.77026 6.39751 3.77729 6.42563 3.98117 6.53108C4.06905 6.57678 4.46274 6.58381 6.84948 6.58381H9.61585L9.59476 6.68574C9.55609 6.87204 9.35573 7.25167 9.17295 7.48015C8.70544 8.05663 7.95321 8.4468 6.9479 8.62607C6.59639 8.68934 6.33276 8.70692 5.28175 8.72449C3.93547 8.7491 3.9425 8.74558 3.82651 8.94243C3.77729 9.02327 3.77026 9.17442 3.77026 9.95829C3.77026 10.5453 3.78432 10.9038 3.80893 10.946C3.83002 10.9847 4.13232 11.3292 4.48383 11.7123C5.76683 13.1008 7.37674 14.9497 9.28543 17.2099C9.85839 17.8918 10.354 18.4507 10.4032 18.4683C10.4489 18.4859 11.0852 18.4999 11.8233 18.4999C13.3032 18.4999 13.3102 18.4999 13.4157 18.275C13.5387 18.0113 13.5984 18.1062 12.3892 16.6369C10.695 14.5841 9.10265 12.7282 8.0657 11.5998C7.76691 11.2764 7.52789 11.0023 7.53843 10.9952C7.54546 10.9882 7.66849 10.9636 7.81261 10.9425C9.89354 10.6297 11.4648 9.59623 12.224 8.04257C12.4033 7.67348 12.565 7.19192 12.6283 6.83689L12.674 6.58381H13.7953C14.7198 6.58381 14.9342 6.57326 15.0185 6.53108C15.2224 6.42563 15.2294 6.39751 15.2294 5.52225V4.72081L15.1275 4.60833L15.0256 4.49233L13.8375 4.47476L12.6494 4.45718L12.5509 4.10567C12.4349 3.71198 12.203 3.19527 11.992 2.87188C11.9182 2.75588 11.855 2.65043 11.855 2.63637C11.855 2.62231 12.558 2.61176 13.4157 2.61176H14.9764L15.0853 2.50631C15.2189 2.36922 15.24 2.21104 15.2259 1.40609C15.2119 0.847189 15.2048 0.780403 15.138 0.689011C15.0994 0.636284 15.0256 0.569496 14.9799 0.548407C14.8498 0.481621 4.14989 0.485136 3.99874 0.551922Z" fill="white"/>
</svg>
