<svg width="13" height="12" viewBox="0 0 13 12" fill="none" xmlns="http://www.w3.org/2000/svg">
<path d="M1.5 4.875C1.295 4.875 1.125 4.705 1.125 4.5V3.25C1.125 1.8 2.305 0.625 3.75 0.625H5C5.205 0.625 5.375 0.795 5.375 1C5.375 1.205 5.205 1.375 5 1.375H3.75C2.715 1.375 1.875 2.215 1.875 3.25V4.5C1.875 4.705 1.705 4.875 1.5 4.875Z" fill="#A82D44"/>
<path d="M11.5 4.875C11.295 4.875 11.125 4.705 11.125 4.5V3.25C11.125 2.215 10.285 1.375 9.25 1.375H8C7.795 1.375 7.625 1.205 7.625 1C7.625 0.795 7.795 0.625 8 0.625H9.25C10.695 0.625 11.875 1.8 11.875 3.25V4.5C11.875 4.705 11.705 4.875 11.5 4.875Z" fill="#A82D44"/>
<path d="M9.25 11.375H8.5C8.295 11.375 8.125 11.205 8.125 11C8.125 10.795 8.295 10.625 8.5 10.625H9.25C10.285 10.625 11.125 9.785 11.125 8.75V8C11.125 7.795 11.295 7.625 11.5 7.625C11.705 7.625 11.875 7.795 11.875 8V8.75C11.875 10.2 10.695 11.375 9.25 11.375Z" fill="#A82D44"/>
<path d="M5 11.375H3.75C2.305 11.375 1.125 10.2 1.125 8.75V7.5C1.125 7.295 1.295 7.125 1.5 7.125C1.705 7.125 1.875 7.295 1.875 7.5V8.75C1.875 9.785 2.715 10.625 3.75 10.625H5C5.205 10.625 5.375 10.795 5.375 11C5.375 11.205 5.205 11.375 5 11.375Z" fill="#A82D44"/>
<path d="M7.5 9.125H5.5C4.29 9.125 3.625 8.46 3.625 7.25V4.75C3.625 3.54 4.29 2.875 5.5 2.875H7.5C8.71 2.875 9.375 3.54 9.375 4.75V7.25C9.375 8.46 8.71 9.125 7.5 9.125ZM5.5 3.625C4.71 3.625 4.375 3.96 4.375 4.75V7.25C4.375 8.04 4.71 8.375 5.5 8.375H7.5C8.29 8.375 8.625 8.04 8.625 7.25V4.75C8.625 3.96 8.29 3.625 7.5 3.625H5.5Z" fill="#A82D44"/>
<path d="M10 6.375H3C2.795 6.375 2.625 6.205 2.625 6C2.625 5.795 2.795 5.625 3 5.625H10C10.205 5.625 10.375 5.795 10.375 6C10.375 6.205 10.205 6.375 10 6.375Z" fill="#A82D44"/>
</svg>
