<svg width="23" height="22" viewBox="0 0 23 22" fill="none" xmlns="http://www.w3.org/2000/svg">
<path d="M17.6416 21.8085C18.0036 21.8085 18.3397 21.6926 18.6365 21.4858C18.6748 21.4599 18.7007 21.4341 18.7265 21.4082C18.7524 21.3958 18.7658 21.37 18.7782 21.3565C18.8299 21.3172 18.8558 21.279 18.8941 21.2407C18.9199 21.2148 18.9334 21.189 18.9582 21.1631L18.9706 21.1507C18.9965 21.1249 19.0099 21.099 19.0223 21.0731L19.0482 21.0338C19.0999 20.9563 19.1382 20.8787 19.1775 20.8011C19.1899 20.7629 19.2033 20.7236 19.2168 20.6853C19.2292 20.646 19.2426 20.5953 19.255 20.556C19.2685 20.5043 19.2809 20.4402 19.2943 20.375C19.2943 20.3492 19.3067 20.3109 19.3067 20.285C19.3067 20.2333 19.3191 20.1816 19.3191 20.1299C19.3191 20.0399 19.3067 19.9489 19.2933 19.8455L18.2983 14.0579L22.4974 9.96231C22.5749 9.88474 22.6525 9.79476 22.7166 9.70375C22.7942 9.58791 22.8459 9.4969 22.8842 9.39348C22.8966 9.35521 22.9224 9.3035 22.9359 9.23834C22.9752 9.08321 23 8.92807 23 8.76052C23 8.70881 23 8.67055 23 8.61883C23 8.54127 22.9876 8.4637 22.9617 8.38613C22.9617 8.37372 22.9493 8.34786 22.9493 8.33442C22.9359 8.29512 22.9359 8.25685 22.9235 8.21858C22.9235 8.20617 22.9111 8.17928 22.8976 8.14102C22.8852 8.10171 22.8718 8.06345 22.8459 8.02518C22.8076 7.94761 22.7683 7.87005 22.7042 7.78007C22.6784 7.72836 22.6401 7.69009 22.6008 7.65079C22.6008 7.65079 22.6008 7.63837 22.5884 7.63837L22.3815 7.30225H22.2005C22.1747 7.2888 22.1623 7.27639 22.1364 7.26295C22.1106 7.25054 22.0588 7.22468 22.0206 7.19882C21.9689 7.17297 21.9047 7.14711 21.8272 7.12125C21.8013 7.10884 21.763 7.0954 21.7237 7.0954C21.672 7.08299 21.6203 7.06954 21.5562 7.0561L15.7427 6.2163L13.1851 0.984082C12.9007 0.40284 12.3194 0.0408554 11.674 0.0408554C11.2086 0.0408554 10.7567 0.234259 10.434 0.570387C10.3823 0.63451 10.3306 0.686222 10.2923 0.751379C10.2406 0.828947 10.1889 0.906514 10.1506 0.984082L7.55364 6.22871L1.75363 7.06851C1.10723 7.15849 0.577698 7.61148 0.384296 8.23099C0.370852 8.2703 0.35844 8.29512 0.35844 8.33442C0.35844 8.34683 0.35844 8.34683 0.346029 8.36027C0.333618 8.39957 0.320173 8.43784 0.320173 8.48955C0.320173 8.50196 0.320173 8.50196 0.320173 8.51541C0.307762 8.56712 0.307764 8.60539 0.307764 8.6571C0.294317 8.90221 0.33362 9.16077 0.437042 9.39348C0.476343 9.4969 0.527021 9.58688 0.592178 9.67789L0.605625 9.69031C0.669746 9.78028 0.747314 9.8713 0.824883 9.94887L5.02389 14.0444L4.02896 19.8186C3.92553 20.4516 4.17065 21.0845 4.70121 21.4724C4.83049 21.5623 4.98563 21.6533 5.14076 21.7051C5.15421 21.7051 5.16662 21.7185 5.19247 21.7185C5.36002 21.7702 5.5286 21.7961 5.69615 21.7961C5.96712 21.7961 6.23912 21.7319 6.48424 21.6027L11.6772 18.8764L16.8701 21.6027C17.0997 21.7444 17.3706 21.8085 17.6416 21.8085Z" fill="white"/>
<path d="M11.6739 0.867088V11.5508L15.24 6.99082L12.4496 1.34594C12.281 1.03567 11.9708 0.867088 11.6739 0.867088Z" fill="#FFFAF6"/>
<path d="M1.1717 8.50308L11.662 11.552L8.09697 6.99206L1.86981 7.89598C1.52024 7.96011 1.27513 8.20522 1.1717 8.50308Z" fill="#FEE0AC"/>
<path d="M5.18793 20.8134L11.6726 11.5508L5.91086 13.7599L4.8518 19.9612C4.77527 20.3232 4.93041 20.6324 5.18793 20.8134Z" fill="#ECB76B"/>
<path d="M11.6736 11.5508V17.9455L17.2419 20.8775C17.5646 21.0451 17.9007 20.9934 18.1593 20.8134L11.6736 11.5508Z" fill="#F1A341"/>
<path d="M8.10765 6.99082L11.6737 11.5508V0.867088C11.441 0.867088 11.2083 0.957067 11.0408 1.13806C11.0149 1.16391 10.989 1.20218 10.9632 1.24148C10.9373 1.28078 10.9115 1.31905 10.8991 1.35732L8.10765 6.99082Z" fill="#FFE9BA"/>
<path d="M1.19749 9.0843C1.22335 9.13602 1.24921 9.18773 1.27506 9.23944C1.31436 9.29115 1.35263 9.32942 1.3909 9.38113L5.89914 13.7735L11.6609 11.5644L1.1706 8.51547C1.1706 8.52788 1.15819 8.54133 1.15819 8.55477C1.15819 8.56822 1.14475 8.58063 1.14475 8.60649C1.14475 8.61993 1.14475 8.61993 1.14475 8.61993C1.14475 8.63234 1.14475 8.64579 1.14475 8.6582C1.14475 8.68405 1.14475 8.6975 1.14475 8.72232C1.13234 8.83816 1.14578 8.96743 1.19749 9.0843Z" fill="#E49632"/>
<path d="M5.18799 20.8134C5.25212 20.8651 5.32968 20.9034 5.4207 20.9293C5.43311 20.9293 5.43311 20.9293 5.44655 20.9417C5.6534 21.0058 5.88611 20.9934 6.10536 20.8775L11.6737 17.9455V11.5508L5.18799 20.8134Z" fill="#E29136"/>
<path d="M11.6738 11.5508L18.1584 20.8134C18.1708 20.8 18.1843 20.7876 18.1967 20.7741C18.2091 20.7617 18.2226 20.7483 18.236 20.7348C18.2484 20.7224 18.2619 20.709 18.2877 20.6831C18.3012 20.6707 18.3136 20.6573 18.327 20.6438C18.3405 20.6304 18.3394 20.6314 18.3394 20.618C18.3518 20.6055 18.3653 20.5921 18.3653 20.5787C18.3911 20.5404 18.417 20.5011 18.4294 20.4628C18.4418 20.4504 18.4418 20.4235 18.4553 20.3987C18.4677 20.3728 18.4677 20.3594 18.4811 20.3346C18.4935 20.3087 18.4935 20.2704 18.4935 20.2446C18.4935 20.2322 18.4935 20.2053 18.4935 20.1929C18.4935 20.167 18.4935 20.1412 18.4935 20.1153C18.4935 20.0636 18.4935 20.0119 18.4811 19.9602L17.4221 13.7589L11.6738 11.5508Z" fill="#FED891"/>
<path d="M11.6744 11.5509L22.1647 8.50191C22.1647 8.4895 22.1523 8.47606 22.1523 8.46261C22.1399 8.43676 22.1399 8.4109 22.1264 8.39849C22.1005 8.34678 22.0747 8.30851 22.0488 8.26921C22.0364 8.24336 22.023 8.22991 21.9971 8.20509C21.9837 8.19268 21.9713 8.16579 21.9454 8.15338C21.933 8.14097 21.9061 8.11511 21.8937 8.10166C21.8813 8.08822 21.8554 8.07581 21.842 8.06236C21.8161 8.04995 21.7903 8.02306 21.7644 8.01065C21.752 7.99824 21.7262 7.9848 21.7003 7.9848C21.661 7.97238 21.6362 7.95894 21.5969 7.94549C21.5845 7.94549 21.571 7.93308 21.5452 7.93308C21.5193 7.92067 21.481 7.92067 21.4417 7.90723L15.2146 7.0033L11.6744 11.5509Z" fill="#FFF3D9"/>
<path d="M11.6742 11.5508L17.4225 13.7724L21.9308 9.37998C21.9825 9.34068 22.0083 9.29 22.0466 9.23829C22.0725 9.18658 22.1107 9.13487 22.1242 9.08315C22.1366 9.0573 22.15 9.03144 22.15 9.00559C22.1759 8.92802 22.1893 8.83804 22.1893 8.76047C22.1893 8.73462 22.1893 8.70876 22.1893 8.6829C22.1893 8.64464 22.1893 8.61878 22.1759 8.57948C22.1759 8.56707 22.1635 8.55362 22.1635 8.52777C22.1635 8.51536 22.1511 8.50191 22.1511 8.4895L11.6742 11.5508Z" fill="#ECB76B"/>
</svg>
